0, 0, Header, 0, 1, 960
1, 0, Start_track
1, 0, Title_t, "untitled"
1, 0, Time_signature, 4, 2, 24, 8
1, 0, Key_signature, 1, "major"
1, 0, Tempo, 1000000
1, 0, Unknown_meta_event, 8, 50, 171, 67, 172, 75, 187, 82, 166, 177, 95, 164, 163, 184, 212, 0, 0, 0, 43, 0, 0, 0, 0, 0, 0, 0, 26, 0, 0, 0, 68, 58, 92, 99, 98, 109, 114, 92, 115, 101, 109, 105, 50, 109, 105, 100, 105, 92, 118, 50, 92, 68
1, 0, Note_on_c, 0, 71, 100
1, 240, Note_on_c, 0, 71, 0
1, 240, Note_on_c, 0, 69, 100
1, 480, Note_on_c, 0, 69, 0
1, 480, Note_on_c, 0, 66, 100
1, 720, Note_on_c, 0, 66, 0
1, 720, Note_on_c, 0, 67, 100
1, 960, Note_on_c, 0, 67, 0
1, 960, Note_on_c, 0, 71, 100
1, 1200, Note_on_c, 0, 71, 0
1, 1200, Note_on_c, 0, 69, 100
1, 1440, Note_on_c, 0, 69, 0
1, 1440, Note_on_c, 0, 67, 100
1, 1680, Note_on_c, 0, 67, 0
1, 1680, Note_on_c, 0, 66, 100
1, 1920, Note_on_c, 0, 66, 0
1, 1920, Note_on_c, 0, 64, 100
1, 2400, Note_on_c, 0, 64, 0
1, 2400, Note_on_c, 0, 64, 100
1, 2640, Note_on_c, 0, 64, 0
1, 2640, Note_on_c, 0, 72, 100
1, 2880, Note_on_c, 0, 72, 0
1, 2880, Note_on_c, 0, 71, 100
1, 3840, Note_on_c, 0, 71, 0
1, 3840, Note_on_c, 0, 71, 100
1, 4080, Note_on_c, 0, 71, 0
1, 4080, Note_on_c, 0, 69, 100
1, 4320, Note_on_c, 0, 69, 0
1, 4320, Note_on_c, 0, 66, 100
1, 4560, Note_on_c, 0, 66, 0
1, 4560, Note_on_c, 0, 67, 100
1, 4800, Note_on_c, 0, 67, 0
1, 4800, Note_on_c, 0, 71, 100
1, 5040, Note_on_c, 0, 71, 0
1, 5040, Note_on_c, 0, 69, 100
1, 5280, Note_on_c, 0, 69, 0
1, 5280, Note_on_c, 0, 67, 100
1, 5520, Note_on_c, 0, 67, 0
1, 5520, Note_on_c, 0, 66, 100
1, 5760, Note_on_c, 0, 66, 0
1, 5760, Note_on_c, 0, 64, 100
1, 6240, Note_on_c, 0, 64, 0
1, 6240, Note_on_c, 0, 64, 100
1, 6480, Note_on_c, 0, 64, 0
1, 6480, Note_on_c, 0, 64, 100
1, 6720, Note_on_c, 0, 64, 0
1, 6720, Note_on_c, 0, 64, 100
1, 7680, Note_on_c, 0, 64, 0
1, 7680, Note_on_c, 0, 64, 100
1, 7920, Note_on_c, 0, 64, 0
1, 7920, Note_on_c, 0, 64, 100
1, 8160, Note_on_c, 0, 64, 0
1, 8160, Note_on_c, 0, 69, 100
1, 8400, Note_on_c, 0, 69, 0
1, 8400, Note_on_c, 0, 72, 100
1, 8640, Note_on_c, 0, 72, 0
1, 8640, Note_on_c, 0, 71, 100
1, 9120, Note_on_c, 0, 71, 0
1, 9120, Note_on_c, 0, 76, 100
1, 9360, Note_on_c, 0, 76, 0
1, 9360, Note_on_c, 0, 72, 100
1, 9600, Note_on_c, 0, 72, 0
1, 9600, Note_on_c, 0, 71, 100
1, 10080, Note_on_c, 0, 71, 0
1, 10080, Note_on_c, 0, 71, 100
1, 10320, Note_on_c, 0, 71, 0
1, 10320, Note_on_c, 0, 69, 100
1, 10560, Note_on_c, 0, 69, 0
1, 10560, Note_on_c, 0, 71, 100
1, 11520, Note_on_c, 0, 71, 0
1, 11520, Note_on_c, 0, 71, 100
1, 11760, Note_on_c, 0, 71, 0
1, 11760, Note_on_c, 0, 69, 100
1, 12000, Note_on_c, 0, 69, 0
1, 12000, Note_on_c, 0, 66, 100
1, 12240, Note_on_c, 0, 66, 0
1, 12240, Note_on_c, 0, 67, 100
1, 12480, Note_on_c, 0, 67, 0
1, 12480, Note_on_c, 0, 71, 100
1, 12720, Note_on_c, 0, 71, 0
1, 12720, Note_on_c, 0, 69, 100
1, 12960, Note_on_c, 0, 69, 0
1, 12960, Note_on_c, 0, 67, 100
1, 13200, Note_on_c, 0, 67, 0
1, 13200, Note_on_c, 0, 66, 100
1, 13440, Note_on_c, 0, 66, 0
1, 13440, Note_on_c, 0, 64, 100
1, 13920, Note_on_c, 0, 64, 0
1, 13920, Note_on_c, 0, 64, 100
1, 14160, Note_on_c, 0, 64, 0
1, 14160, Note_on_c, 0, 72, 100
1, 14400, Note_on_c, 0, 72, 0
1, 14400, Note_on_c, 0, 71, 100
1, 15360, Note_on_c, 0, 71, 0
1, 15360, Note_on_c, 0, 71, 100
1, 15600, Note_on_c, 0, 71, 0
1, 15600, Note_on_c, 0, 69, 100
1, 15840, Note_on_c, 0, 69, 0
1, 15840, Note_on_c, 0, 66, 100
1, 16080, Note_on_c, 0, 66, 0
1, 16080, Note_on_c, 0, 67, 100
1, 16320, Note_on_c, 0, 67, 0
1, 16320, Note_on_c, 0, 71, 100
1, 16560, Note_on_c, 0, 71, 0
1, 16560, Note_on_c, 0, 69, 100
1, 16800, Note_on_c, 0, 69, 0
1, 16800, Note_on_c, 0, 67, 100
1, 17040, Note_on_c, 0, 67, 0
1, 17040, Note_on_c, 0, 66, 100
1, 17280, Note_on_c, 0, 66, 0
1, 17280, Note_on_c, 0, 64, 100
1, 17760, Note_on_c, 0, 64, 0
1, 17760, Note_on_c, 0, 64, 100
1, 18000, Note_on_c, 0, 64, 0
1, 18000, Note_on_c, 0, 64, 100
1, 18240, Note_on_c, 0, 64, 0
1, 18240, Note_on_c, 0, 64, 100
1, 19200, Note_on_c, 0, 64, 0
1, 19200, Note_on_c, 0, 64, 100
1, 19440, Note_on_c, 0, 64, 0
1, 19440, Note_on_c, 0, 67, 100
1, 19680, Note_on_c, 0, 67, 0
1, 19680, Note_on_c, 0, 67, 100
1, 19920, Note_on_c, 0, 67, 0
1, 19920, Note_on_c, 0, 67, 100
1, 20160, Note_on_c, 0, 67, 0
1, 20160, Note_on_c, 0, 67, 100
1, 20880, Note_on_c, 0, 67, 0
1, 20880, Note_on_c, 0, 66, 100
1, 21120, Note_on_c, 0, 66, 0
1, 21120, Note_on_c, 0, 64, 100
1, 21360, Note_on_c, 0, 64, 0
1, 21360, Note_on_c, 0, 67, 100
1, 21600, Note_on_c, 0, 67, 0
1, 21600, Note_on_c, 0, 66, 100
1, 21840, Note_on_c, 0, 66, 0
1, 21840, Note_on_c, 0, 64, 100
1, 22080, Note_on_c, 0, 64, 0
1, 22080, Note_on_c, 0, 66, 100
1, 23040, Note_on_c, 0, 66, 0
1, 23040, Note_on_c, 0, 66, 100
1, 23280, Note_on_c, 0, 66, 0
1, 23280, Note_on_c, 0, 67, 100
1, 23520, Note_on_c, 0, 67, 0
1, 23520, Note_on_c, 0, 69, 100
1, 23760, Note_on_c, 0, 69, 0
1, 23760, Note_on_c, 0, 72, 100
1, 24000, Note_on_c, 0, 72, 0
1, 24000, Note_on_c, 0, 71, 100
1, 24240, Note_on_c, 0, 71, 0
1, 24240, Note_on_c, 0, 69, 100
1, 24480, Note_on_c, 0, 69, 0
1, 24480, Note_on_c, 0, 67, 100
1, 24720, Note_on_c, 0, 67, 0
1, 24720, Note_on_c, 0, 66, 100
1, 24960, Note_on_c, 0, 66, 0
1, 24960, Note_on_c, 0, 64, 100
1, 25440, Note_on_c, 0, 64, 0
1, 25440, Note_on_c, 0, 64, 100
1, 25680, Note_on_c, 0, 64, 0
1, 25680, Note_on_c, 0, 64, 100
1, 25920, Note_on_c, 0, 64, 0
1, 25920, Note_on_c, 0, 64, 100
1, 26880, Note_on_c, 0, 64, 0
1, 26880, End_track
0, 0, End_of_file
