0, 0, Header, 0, 1, 96
1, 0, Start_track
1, 0, Tempo, 1500000
1, 0, Note_on_c, 0, 60, 127
1, 14, Note_on_c, 0, 60, 0
1, 14, Note_on_c, 0, 61, 127
1, 28, Note_on_c, 0, 61, 0
1, 28, Note_on_c, 0, 63, 127
1, 55, Note_on_c, 0, 63, 0
1, 55, Note_on_c, 0, 63, 127
1, 82, Note_on_c, 0, 63, 0
1, 82, Note_on_c, 0, 63, 127
1, 109, Note_on_c, 0, 63, 0
1, 109, Note_on_c, 0, 63, 127
1, 123, Note_on_c, 0, 63, 0
1, 123, Note_on_c, 0, 63, 127
1, 137, Note_on_c, 0, 63, 0
1, 137, Note_on_c, 0, 65, 127
1, 151, Note_on_c, 0, 65, 0
1, 151, Note_on_c, 0, 63, 127
1, 165, Note_on_c, 0, 63, 0
1, 165, Note_on_c, 0, 61, 127
1, 218, Note_on_c, 0, 61, 0
1, 218, Note_on_c, 0, 60, 127
1, 232, Note_on_c, 0, 60, 0
1, 232, Note_on_c, 0, 61, 127
1, 246, Note_on_c, 0, 61, 0
1, 246, Note_on_c, 0, 63, 127
1, 273, Note_on_c, 0, 63, 0
1, 273, Note_on_c, 0, 63, 127
1, 300, Note_on_c, 0, 63, 0
1, 300, Note_on_c, 0, 60, 127
1, 314, Note_on_c, 0, 60, 0
1, 314, Note_on_c, 0, 58, 127
1, 328, Note_on_c, 0, 58, 0
1, 328, Note_on_c, 0, 56, 127
1, 355, Note_on_c, 0, 56, 0
1, 355, Note_on_c, 0, 58, 127
1, 434, Note_on_c, 0, 58, 0
1, 434, Note_on_c, 0, 60, 127
1, 448, Note_on_c, 0, 60, 0
1, 448, Note_on_c, 0, 58, 127
1, 462, Note_on_c, 0, 58, 0
1, 462, Note_on_c, 0, 56, 127
1, 476, Note_on_c, 0, 56, 0
1, 476, Note_on_c, 0, 56, 127
1, 490, Note_on_c, 0, 56, 0
1, 490, Note_on_c, 0, 56, 127
1, 517, Note_on_c, 0, 56, 0
1, 517, Note_on_c, 0, 68, 127
1, 531, Note_on_c, 0, 68, 0
1, 531, Note_on_c, 0, 68, 127
1, 571, Note_on_c, 0, 68, 0
1, 571, Note_on_c, 0, 67, 127
1, 585, Note_on_c, 0, 67, 0
1, 585, Note_on_c, 0, 68, 127
1, 599, Note_on_c, 0, 68, 0
1, 599, Note_on_c, 0, 67, 127
1, 613, Note_on_c, 0, 67, 0
1, 613, Note_on_c, 0, 63, 127
1, 679, Note_on_c, 0, 63, 0
1, 679, Note_on_c, 0, 65, 127
1, 693, Note_on_c, 0, 65, 0
1, 693, Note_on_c, 0, 63, 127
1, 707, Note_on_c, 0, 63, 0
1, 707, Note_on_c, 0, 61, 127
1, 721, Note_on_c, 0, 61, 0
1, 721, Note_on_c, 0, 61, 127
1, 748, Note_on_c, 0, 61, 0
1, 748, Note_on_c, 0, 63, 127
1, 762, Note_on_c, 0, 63, 0
1, 762, Note_on_c, 0, 65, 127
1, 789, Note_on_c, 0, 65, 0
1, 789, Note_on_c, 0, 63, 127
1, 894, Note_on_c, 0, 63, 0
1, 894, Note_on_c, 0, 68, 127
1, 921, Note_on_c, 0, 68, 0
1, 921, Note_on_c, 0, 68, 127
1, 974, Note_on_c, 0, 68, 0
1, 974, Note_on_c, 0, 65, 127
1, 988, Note_on_c, 0, 65, 0
1, 988, Note_on_c, 0, 60, 127
1, 1002, Note_on_c, 0, 60, 0
1, 1002, Note_on_c, 0, 63, 127
1, 1016, Note_on_c, 0, 63, 0
1, 1016, Note_on_c, 0, 65, 127
1, 1030, Note_on_c, 0, 65, 0
1, 1030, Note_on_c, 0, 63, 127
1, 1109, Note_on_c, 0, 63, 0
1, 1109, Note_on_c, 0, 65, 127
1, 1136, Note_on_c, 0, 65, 0
1, 1136, Note_on_c, 0, 65, 127
1, 1163, Note_on_c, 0, 65, 0
1, 1163, Note_on_c, 0, 63, 127
1, 1177, Note_on_c, 0, 63, 0
1, 1177, Note_on_c, 0, 56, 127
1, 1204, Note_on_c, 0, 56, 0
1, 1204, Note_on_c, 0, 58, 127
1, 1218, Note_on_c, 0, 58, 0
1, 1218, Note_on_c, 0, 60, 127
1, 1297, Note_on_c, 0, 60, 0
1, 1297, Note_on_c, 0, 58, 127
1, 1324, Note_on_c, 0, 58, 0
1, 1324, Note_on_c, 0, 56, 127
1, 1351, Note_on_c, 0, 56, 0
1, 1351, Note_on_c, 0, 56, 127
1, 1378, Note_on_c, 0, 56, 0
1, 1378, Note_on_c, 0, 56, 127
1, 1392, Note_on_c, 0, 56, 0
1, 1392, Note_on_c, 0, 60, 127
1, 1419, Note_on_c, 0, 60, 0
1, 1419, Note_on_c, 0, 60, 127
1, 1433, Note_on_c, 0, 60, 0
1, 1433, Note_on_c, 0, 60, 127
1, 1447, Note_on_c, 0, 60, 0
1, 1447, Note_on_c, 0, 58, 127
1, 1461, Note_on_c, 0, 58, 0
1, 1461, Note_on_c, 0, 58, 127
1, 1514, Note_on_c, 0, 58, 0
1, 1514, Note_on_c, 0, 58, 127
1, 1541, Note_on_c, 0, 58, 0
1, 1541, Note_on_c, 0, 70, 127
1, 1568, Note_on_c, 0, 70, 0
1, 1568, Note_on_c, 0, 70, 127
1, 1595, Note_on_c, 0, 70, 0
1, 1595, Note_on_c, 0, 67, 127
1, 1622, Note_on_c, 0, 67, 0
1, 1622, Note_on_c, 0, 65, 127
1, 1649, Note_on_c, 0, 65, 0
1, 1649, Note_on_c, 0, 63, 127
1, 1818, Note_on_c, 0, 63, 0
1, 1832, Note_on_c, 0, 60, 127
1, 1846, Note_on_c, 0, 60, 0
1, 1846, Note_on_c, 0, 61, 127
1, 1860, Note_on_c, 0, 61, 0
1, 1860, Note_on_c, 0, 63, 127
1, 1887, Note_on_c, 0, 63, 0
1, 1887, Note_on_c, 0, 63, 127
1, 1914, Note_on_c, 0, 63, 0
1, 1914, Note_on_c, 0, 63, 127
1, 1941, Note_on_c, 0, 63, 0
1, 1941, Note_on_c, 0, 63, 127
1, 1955, Note_on_c, 0, 63, 0
1, 1955, Note_on_c, 0, 63, 127
1, 1969, Note_on_c, 0, 63, 0
1, 1969, Note_on_c, 0, 65, 127
1, 1983, Note_on_c, 0, 65, 0
1, 1983, Note_on_c, 0, 63, 127
1, 1997, Note_on_c, 0, 63, 0
1, 1997, Note_on_c, 0, 61, 127
1, 2050, Note_on_c, 0, 61, 0
1, 2050, Note_on_c, 0, 60, 127
1, 2064, Note_on_c, 0, 60, 0
1, 2064, Note_on_c, 0, 61, 127
1, 2078, Note_on_c, 0, 61, 0
1, 2078, Note_on_c, 0, 63, 127
1, 2105, Note_on_c, 0, 63, 0
1, 2105, Note_on_c, 0, 63, 127
1, 2132, Note_on_c, 0, 63, 0
1, 2132, Note_on_c, 0, 60, 127
1, 2146, Note_on_c, 0, 60, 0
1, 2146, Note_on_c, 0, 58, 127
1, 2160, Note_on_c, 0, 58, 0
1, 2160, Note_on_c, 0, 56, 127
1, 2187, Note_on_c, 0, 56, 0
1, 2187, Note_on_c, 0, 58, 127
1, 2266, Note_on_c, 0, 58, 0
1, 2266, Note_on_c, 0, 60, 127
1, 2280, Note_on_c, 0, 60, 0
1, 2280, Note_on_c, 0, 58, 127
1, 2294, Note_on_c, 0, 58, 0
1, 2294, Note_on_c, 0, 56, 127
1, 2308, Note_on_c, 0, 56, 0
1, 2308, Note_on_c, 0, 56, 127
1, 2322, Note_on_c, 0, 56, 0
1, 2322, Note_on_c, 0, 56, 127
1, 2349, Note_on_c, 0, 56, 0
1, 2349, Note_on_c, 0, 68, 127
1, 2363, Note_on_c, 0, 68, 0
1, 2363, Note_on_c, 0, 68, 127
1, 2403, Note_on_c, 0, 68, 0
1, 2403, Note_on_c, 0, 67, 127
1, 2417, Note_on_c, 0, 67, 0
1, 2417, Note_on_c, 0, 67, 127
1, 2444, Note_on_c, 0, 67, 0
1, 2444, Note_on_c, 0, 68, 127
1, 2458, Note_on_c, 0, 68, 0
1, 2458, Note_on_c, 0, 67, 127
1, 2472, Note_on_c, 0, 67, 0
1, 2472, Note_on_c, 0, 65, 127
1, 2486, Note_on_c, 0, 65, 0
1, 2486, Note_on_c, 0, 63, 127
1, 2513, Note_on_c, 0, 63, 0
1, 2513, Note_on_c, 0, 65, 127
1, 2527, Note_on_c, 0, 65, 0
1, 2527, Note_on_c, 0, 63, 127
1, 2541, Note_on_c, 0, 63, 0
1, 2541, Note_on_c, 0, 61, 127
1, 2555, Note_on_c, 0, 61, 0
1, 2555, Note_on_c, 0, 61, 127
1, 2582, Note_on_c, 0, 61, 0
1, 2582, Note_on_c, 0, 63, 127
1, 2596, Note_on_c, 0, 63, 0
1, 2596, Note_on_c, 0, 65, 127
1, 2623, Note_on_c, 0, 65, 0
1, 2623, Note_on_c, 0, 63, 127
1, 2728, Note_on_c, 0, 63, 0
1, 2728, Note_on_c, 0, 68, 127
1, 2755, Note_on_c, 0, 68, 0
1, 2755, Note_on_c, 0, 68, 127
1, 2808, Note_on_c, 0, 68, 0
1, 2808, Note_on_c, 0, 65, 127
1, 2822, Note_on_c, 0, 65, 0
1, 2822, Note_on_c, 0, 60, 127
1, 2836, Note_on_c, 0, 60, 0
1, 2836, Note_on_c, 0, 63, 127
1, 2850, Note_on_c, 0, 63, 0
1, 2850, Note_on_c, 0, 65, 127
1, 2864, Note_on_c, 0, 65, 0
1, 2864, Note_on_c, 0, 63, 127
1, 2943, Note_on_c, 0, 63, 0
1, 2943, Note_on_c, 0, 65, 127
1, 2970, Note_on_c, 0, 65, 0
1, 2970, Note_on_c, 0, 65, 127
1, 2997, Note_on_c, 0, 65, 0
1, 2997, Note_on_c, 0, 63, 127
1, 3011, Note_on_c, 0, 63, 0
1, 3011, Note_on_c, 0, 56, 127
1, 3038, Note_on_c, 0, 56, 0
1, 3038, Note_on_c, 0, 58, 127
1, 3052, Note_on_c, 0, 58, 0
1, 3052, Note_on_c, 0, 60, 127
1, 3131, Note_on_c, 0, 60, 0
1, 3131, Note_on_c, 0, 58, 127
1, 3158, Note_on_c, 0, 58, 0
1, 3158, Note_on_c, 0, 56, 127
1, 3185, Note_on_c, 0, 56, 0
1, 3185, Note_on_c, 0, 56, 127
1, 3212, Note_on_c, 0, 56, 0
1, 3212, Note_on_c, 0, 56, 127
1, 3226, Note_on_c, 0, 56, 0
1, 3226, Note_on_c, 0, 60, 127
1, 3253, Note_on_c, 0, 60, 0
1, 3253, Note_on_c, 0, 60, 127
1, 3267, Note_on_c, 0, 60, 0
1, 3267, Note_on_c, 0, 60, 127
1, 3281, Note_on_c, 0, 60, 0
1, 3281, Note_on_c, 0, 58, 127
1, 3295, Note_on_c, 0, 58, 0
1, 3295, Note_on_c, 0, 58, 127
1, 3348, Note_on_c, 0, 58, 0
1, 3348, Note_on_c, 0, 65, 127
1, 3362, Note_on_c, 0, 65, 0
1, 3362, Note_on_c, 0, 63, 127
1, 3376, Note_on_c, 0, 63, 0
1, 3376, Note_on_c, 0, 63, 127
1, 3416, Note_on_c, 0, 63, 0
1, 3416, Note_on_c, 0, 60, 127
1, 3430, Note_on_c, 0, 60, 0
1, 3430, Note_on_c, 0, 58, 127
1, 3444, Note_on_c, 0, 58, 0
1, 3444, Note_on_c, 0, 51, 127
1, 3458, Note_on_c, 0, 51, 0
1, 3458, Note_on_c, 0, 60, 127
1, 3472, Note_on_c, 0, 60, 0
1, 3472, Note_on_c, 0, 58, 127
1, 3486, Note_on_c, 0, 58, 0
1, 3486, Note_on_c, 0, 56, 127
1, 3695, Note_on_c, 0, 56, 0
1, 3695, Note_on_c, 0, 65, 127
1, 3709, Note_on_c, 0, 65, 0
1, 3709, Note_on_c, 0, 65, 127
1, 3723, Note_on_c, 0, 65, 0
1, 3723, Note_on_c, 0, 65, 127
1, 3737, Note_on_c, 0, 65, 0
1, 3737, Note_on_c, 0, 67, 127
1, 3751, Note_on_c, 0, 67, 0
1, 3751, Note_on_c, 0, 68, 127
1, 3765, Note_on_c, 0, 68, 0
1, 3765, Note_on_c, 0, 67, 127
1, 3779, Note_on_c, 0, 67, 0
1, 3779, Note_on_c, 0, 65, 127
1, 3806, Note_on_c, 0, 65, 0
1, 3806, Note_on_c, 0, 67, 127
1, 3820, Note_on_c, 0, 67, 0
1, 3820, Note_on_c, 0, 67, 127
1, 3847, Note_on_c, 0, 67, 0
1, 3847, Note_on_c, 0, 68, 127
1, 3861, Note_on_c, 0, 68, 0
1, 3861, Note_on_c, 0, 70, 127
1, 3875, Note_on_c, 0, 70, 0
1, 3875, Note_on_c, 0, 68, 127
1, 3889, Note_on_c, 0, 68, 0
1, 3889, Note_on_c, 0, 67, 127
1, 3916, Note_on_c, 0, 67, 0
1, 3916, Note_on_c, 0, 68, 127
1, 3930, Note_on_c, 0, 68, 0
1, 3930, Note_on_c, 0, 67, 127
1, 3944, Note_on_c, 0, 67, 0
1, 3944, Note_on_c, 0, 65, 127
1, 3958, Note_on_c, 0, 65, 0
1, 3958, Note_on_c, 0, 63, 127
1, 3985, Note_on_c, 0, 63, 0
1, 3985, Note_on_c, 0, 63, 127
1, 3999, Note_on_c, 0, 63, 0
1, 3999, Note_on_c, 0, 56, 127
1, 4013, Note_on_c, 0, 56, 0
1, 4013, Note_on_c, 0, 58, 127
1, 4027, Note_on_c, 0, 58, 0
1, 4027, Note_on_c, 0, 60, 127
1, 4132, Note_on_c, 0, 60, 0
1, 4132, Note_on_c, 0, 60, 127
1, 4159, Note_on_c, 0, 60, 0
1, 4159, Note_on_c, 0, 67, 127
1, 4173, Note_on_c, 0, 67, 0
1, 4173, Note_on_c, 0, 67, 127
1, 4200, Note_on_c, 0, 67, 0
1, 4200, Note_on_c, 0, 60, 127
1, 4227, Note_on_c, 0, 60, 0
1, 4227, Note_on_c, 0, 60, 127
1, 4241, Note_on_c, 0, 60, 0
1, 4241, Note_on_c, 0, 70, 127
1, 4268, Note_on_c, 0, 70, 0
1, 4268, Note_on_c, 0, 70, 127
1, 4295, Note_on_c, 0, 70, 0
1, 4295, Note_on_c, 0, 68, 127
1, 4309, Note_on_c, 0, 68, 0
1, 4309, Note_on_c, 0, 67, 127
1, 4349, Note_on_c, 0, 67, 0
1, 4349, Note_on_c, 0, 65, 127
1, 4558, Note_on_c, 0, 65, 0
1, 4558, Note_on_c, 0, 65, 127
1, 4572, Note_on_c, 0, 65, 0
1, 4572, Note_on_c, 0, 65, 127
1, 4586, Note_on_c, 0, 65, 0
1, 4586, Note_on_c, 0, 65, 127
1, 4600, Note_on_c, 0, 65, 0
1, 4600, Note_on_c, 0, 67, 127
1, 4614, Note_on_c, 0, 67, 0
1, 4614, Note_on_c, 0, 68, 127
1, 4641, Note_on_c, 0, 68, 0
1, 4641, Note_on_c, 0, 65, 127
1, 4668, Note_on_c, 0, 65, 0
1, 4668, Note_on_c, 0, 67, 127
1, 4682, Note_on_c, 0, 67, 0
1, 4682, Note_on_c, 0, 67, 127
1, 4709, Note_on_c, 0, 67, 0
1, 4709, Note_on_c, 0, 68, 127
1, 4723, Note_on_c, 0, 68, 0
1, 4723, Note_on_c, 0, 70, 127
1, 4750, Note_on_c, 0, 70, 0
1, 4750, Note_on_c, 0, 67, 127
1, 4764, Note_on_c, 0, 67, 0
1, 4764, Note_on_c, 0, 67, 127
1, 4778, Note_on_c, 0, 67, 0
1, 4778, Note_on_c, 0, 72, 127
1, 4857, Note_on_c, 0, 72, 0
1, 4857, Note_on_c, 0, 70, 127
1, 4871, Note_on_c, 0, 70, 0
1, 4871, Note_on_c, 0, 68, 127
1, 4885, Note_on_c, 0, 68, 0
1, 4885, Note_on_c, 0, 68, 127
1, 4964, Note_on_c, 0, 68, 0
1, 4964, Note_on_c, 0, 67, 127
1, 4991, Note_on_c, 0, 67, 0
1, 4991, Note_on_c, 0, 65, 127
1, 5018, Note_on_c, 0, 65, 0
1, 5018, Note_on_c, 0, 65, 127
1, 5045, Note_on_c, 0, 65, 0
1, 5045, Note_on_c, 0, 65, 127
1, 5059, Note_on_c, 0, 65, 0
1, 5059, Note_on_c, 0, 65, 127
1, 5085, Note_on_c, 0, 65, 0
1, 5099, Note_on_c, 0, 63, 127
1, 5126, Note_on_c, 0, 63, 0
1, 5126, Note_on_c, 0, 63, 127
1, 5153, Note_on_c, 0, 63, 0
1, 5153, Note_on_c, 0, 58, 127
1, 5167, Note_on_c, 0, 58, 0
1, 5167, Note_on_c, 0, 60, 127
1, 5207, Note_on_c, 0, 60, 0
1, 5207, Note_on_c, 0, 56, 127
1, 5363, Note_on_c, 0, 56, 0
1, 5390, Note_on_c, 0, 60, 127
1, 5404, Note_on_c, 0, 60, 0
1, 5404, Note_on_c, 0, 61, 127
1, 5418, Note_on_c, 0, 61, 0
1, 5418, Note_on_c, 0, 63, 127
1, 5445, Note_on_c, 0, 63, 0
1, 5445, Note_on_c, 0, 63, 127
1, 5472, Note_on_c, 0, 63, 0
1, 5472, Note_on_c, 0, 63, 127
1, 5499, Note_on_c, 0, 63, 0
1, 5499, Note_on_c, 0, 63, 127
1, 5513, Note_on_c, 0, 63, 0
1, 5513, Note_on_c, 0, 63, 127
1, 5527, Note_on_c, 0, 63, 0
1, 5527, Note_on_c, 0, 65, 127
1, 5541, Note_on_c, 0, 65, 0
1, 5541, Note_on_c, 0, 63, 127
1, 5555, Note_on_c, 0, 63, 0
1, 5555, Note_on_c, 0, 61, 127
1, 5608, Note_on_c, 0, 61, 0
1, 5608, Note_on_c, 0, 60, 127
1, 5622, Note_on_c, 0, 60, 0
1, 5622, Note_on_c, 0, 61, 127
1, 5636, Note_on_c, 0, 61, 0
1, 5636, Note_on_c, 0, 63, 127
1, 5663, Note_on_c, 0, 63, 0
1, 5663, Note_on_c, 0, 63, 127
1, 5690, Note_on_c, 0, 63, 0
1, 5690, Note_on_c, 0, 60, 127
1, 5704, Note_on_c, 0, 60, 0
1, 5704, Note_on_c, 0, 58, 127
1, 5718, Note_on_c, 0, 58, 0
1, 5718, Note_on_c, 0, 56, 127
1, 5745, Note_on_c, 0, 56, 0
1, 5745, Note_on_c, 0, 58, 127
1, 5824, Note_on_c, 0, 58, 0
1, 5824, Note_on_c, 0, 60, 127
1, 5838, Note_on_c, 0, 60, 0
1, 5838, Note_on_c, 0, 58, 127
1, 5852, Note_on_c, 0, 58, 0
1, 5852, Note_on_c, 0, 56, 127
1, 5866, Note_on_c, 0, 56, 0
1, 5866, Note_on_c, 0, 56, 127
1, 5880, Note_on_c, 0, 56, 0
1, 5880, Note_on_c, 0, 56, 127
1, 5907, Note_on_c, 0, 56, 0
1, 5907, Note_on_c, 0, 68, 127
1, 5921, Note_on_c, 0, 68, 0
1, 5921, Note_on_c, 0, 68, 127
1, 5961, Note_on_c, 0, 68, 0
1, 5961, Note_on_c, 0, 67, 127
1, 5975, Note_on_c, 0, 67, 0
1, 5975, Note_on_c, 0, 67, 127
1, 6002, Note_on_c, 0, 67, 0
1, 6002, Note_on_c, 0, 68, 127
1, 6016, Note_on_c, 0, 68, 0
1, 6016, Note_on_c, 0, 67, 127
1, 6030, Note_on_c, 0, 67, 0
1, 6030, Note_on_c, 0, 65, 127
1, 6044, Note_on_c, 0, 65, 0
1, 6044, Note_on_c, 0, 63, 127
1, 6071, Note_on_c, 0, 63, 0
1, 6071, Note_on_c, 0, 65, 127
1, 6085, Note_on_c, 0, 65, 0
1, 6085, Note_on_c, 0, 63, 127
1, 6099, Note_on_c, 0, 63, 0
1, 6099, Note_on_c, 0, 61, 127
1, 6113, Note_on_c, 0, 61, 0
1, 6113, Note_on_c, 0, 61, 127
1, 6140, Note_on_c, 0, 61, 0
1, 6140, Note_on_c, 0, 63, 127
1, 6154, Note_on_c, 0, 63, 0
1, 6154, Note_on_c, 0, 65, 127
1, 6181, Note_on_c, 0, 65, 0
1, 6181, Note_on_c, 0, 63, 127
1, 6286, Note_on_c, 0, 63, 0
1, 6286, Note_on_c, 0, 68, 127
1, 6313, Note_on_c, 0, 68, 0
1, 6313, Note_on_c, 0, 68, 127
1, 6366, Note_on_c, 0, 68, 0
1, 6366, Note_on_c, 0, 65, 127
1, 6380, Note_on_c, 0, 65, 0
1, 6380, Note_on_c, 0, 60, 127
1, 6394, Note_on_c, 0, 60, 0
1, 6394, Note_on_c, 0, 63, 127
1, 6408, Note_on_c, 0, 63, 0
1, 6408, Note_on_c, 0, 65, 127
1, 6422, Note_on_c, 0, 65, 0
1, 6422, Note_on_c, 0, 63, 127
1, 6501, Note_on_c, 0, 63, 0
1, 6501, Note_on_c, 0, 65, 127
1, 6528, Note_on_c, 0, 65, 0
1, 6528, Note_on_c, 0, 65, 127
1, 6555, Note_on_c, 0, 65, 0
1, 6555, Note_on_c, 0, 63, 127
1, 6569, Note_on_c, 0, 63, 0
1, 6569, Note_on_c, 0, 56, 127
1, 6596, Note_on_c, 0, 56, 0
1, 6596, Note_on_c, 0, 58, 127
1, 6610, Note_on_c, 0, 58, 0
1, 6610, Note_on_c, 0, 60, 127
1, 6689, Note_on_c, 0, 60, 0
1, 6689, Note_on_c, 0, 58, 127
1, 6716, Note_on_c, 0, 58, 0
1, 6716, Note_on_c, 0, 56, 127
1, 6743, Note_on_c, 0, 56, 0
1, 6743, Note_on_c, 0, 56, 127
1, 6770, Note_on_c, 0, 56, 0
1, 6770, Note_on_c, 0, 56, 127
1, 6784, Note_on_c, 0, 56, 0
1, 6784, Note_on_c, 0, 60, 127
1, 6811, Note_on_c, 0, 60, 0
1, 6811, Note_on_c, 0, 60, 127
1, 6825, Note_on_c, 0, 60, 0
1, 6825, Note_on_c, 0, 60, 127
1, 6839, Note_on_c, 0, 60, 0
1, 6839, Note_on_c, 0, 58, 127
1, 6853, Note_on_c, 0, 58, 0
1, 6853, Note_on_c, 0, 58, 127
1, 6906, Note_on_c, 0, 58, 0
1, 6906, Note_on_c, 0, 65, 127
1, 6920, Note_on_c, 0, 65, 0
1, 6920, Note_on_c, 0, 63, 127
1, 6934, Note_on_c, 0, 63, 0
1, 6934, Note_on_c, 0, 63, 127
1, 6974, Note_on_c, 0, 63, 0
1, 6974, Note_on_c, 0, 60, 127
1, 6988, Note_on_c, 0, 60, 0
1, 6988, Note_on_c, 0, 58, 127
1, 7002, Note_on_c, 0, 58, 0
1, 7002, Note_on_c, 0, 51, 127
1, 7016, Note_on_c, 0, 51, 0
1, 7016, Note_on_c, 0, 60, 127
1, 7030, Note_on_c, 0, 60, 0
1, 7030, Note_on_c, 0, 58, 127
1, 7044, Note_on_c, 0, 58, 0
1, 7044, Note_on_c, 0, 56, 127
1, 7253, Note_on_c, 0, 56, 0
1, 7253, Note_on_c, 0, 65, 127
1, 7267, Note_on_c, 0, 65, 0
1, 7267, Note_on_c, 0, 65, 127
1, 7281, Note_on_c, 0, 65, 0
1, 7281, Note_on_c, 0, 65, 127
1, 7295, Note_on_c, 0, 65, 0
1, 7295, Note_on_c, 0, 67, 127
1, 7309, Note_on_c, 0, 67, 0
1, 7309, Note_on_c, 0, 68, 127
1, 7323, Note_on_c, 0, 68, 0
1, 7323, Note_on_c, 0, 67, 127
1, 7337, Note_on_c, 0, 67, 0
1, 7337, Note_on_c, 0, 65, 127
1, 7364, Note_on_c, 0, 65, 0
1, 7364, Note_on_c, 0, 67, 127
1, 7378, Note_on_c, 0, 67, 0
1, 7378, Note_on_c, 0, 67, 127
1, 7405, Note_on_c, 0, 67, 0
1, 7405, Note_on_c, 0, 68, 127
1, 7419, Note_on_c, 0, 68, 0
1, 7419, Note_on_c, 0, 70, 127
1, 7433, Note_on_c, 0, 70, 0
1, 7433, Note_on_c, 0, 68, 127
1, 7447, Note_on_c, 0, 68, 0
1, 7447, Note_on_c, 0, 67, 127
1, 7474, Note_on_c, 0, 67, 0
1, 7474, Note_on_c, 0, 68, 127
1, 7488, Note_on_c, 0, 68, 0
1, 7488, Note_on_c, 0, 67, 127
1, 7502, Note_on_c, 0, 67, 0
1, 7502, Note_on_c, 0, 65, 127
1, 7516, Note_on_c, 0, 65, 0
1, 7516, Note_on_c, 0, 63, 127
1, 7543, Note_on_c, 0, 63, 0
1, 7543, Note_on_c, 0, 63, 127
1, 7557, Note_on_c, 0, 63, 0
1, 7557, Note_on_c, 0, 56, 127
1, 7571, Note_on_c, 0, 56, 0
1, 7571, Note_on_c, 0, 58, 127
1, 7585, Note_on_c, 0, 58, 0
1, 7585, Note_on_c, 0, 60, 127
1, 7690, Note_on_c, 0, 60, 0
1, 7690, Note_on_c, 0, 60, 127
1, 7717, Note_on_c, 0, 60, 0
1, 7717, Note_on_c, 0, 67, 127
1, 7731, Note_on_c, 0, 67, 0
1, 7731, Note_on_c, 0, 67, 127
1, 7758, Note_on_c, 0, 67, 0
1, 7758, Note_on_c, 0, 60, 127
1, 7785, Note_on_c, 0, 60, 0
1, 7785, Note_on_c, 0, 60, 127
1, 7799, Note_on_c, 0, 60, 0
1, 7799, Note_on_c, 0, 70, 127
1, 7826, Note_on_c, 0, 70, 0
1, 7826, Note_on_c, 0, 70, 127
1, 7853, Note_on_c, 0, 70, 0
1, 7853, Note_on_c, 0, 68, 127
1, 7867, Note_on_c, 0, 68, 0
1, 7867, Note_on_c, 0, 67, 127
1, 7907, Note_on_c, 0, 67, 0
1, 7907, Note_on_c, 0, 65, 127
1, 8116, Note_on_c, 0, 65, 0
1, 8116, Note_on_c, 0, 65, 127
1, 8130, Note_on_c, 0, 65, 0
1, 8130, Note_on_c, 0, 65, 127
1, 8144, Note_on_c, 0, 65, 0
1, 8144, Note_on_c, 0, 65, 127
1, 8158, Note_on_c, 0, 65, 0
1, 8158, Note_on_c, 0, 67, 127
1, 8172, Note_on_c, 0, 67, 0
1, 8172, Note_on_c, 0, 68, 127
1, 8199, Note_on_c, 0, 68, 0
1, 8199, Note_on_c, 0, 65, 127
1, 8226, Note_on_c, 0, 65, 0
1, 8226, Note_on_c, 0, 67, 127
1, 8240, Note_on_c, 0, 67, 0
1, 8240, Note_on_c, 0, 67, 127
1, 8267, Note_on_c, 0, 67, 0
1, 8267, Note_on_c, 0, 68, 127
1, 8281, Note_on_c, 0, 68, 0
1, 8281, Note_on_c, 0, 70, 127
1, 8308, Note_on_c, 0, 70, 0
1, 8308, Note_on_c, 0, 67, 127
1, 8322, Note_on_c, 0, 67, 0
1, 8322, Note_on_c, 0, 67, 127
1, 8336, Note_on_c, 0, 67, 0
1, 8336, Note_on_c, 0, 72, 127
1, 8415, Note_on_c, 0, 72, 0
1, 8415, Note_on_c, 0, 70, 127
1, 8429, Note_on_c, 0, 70, 0
1, 8429, Note_on_c, 0, 68, 127
1, 8443, Note_on_c, 0, 68, 0
1, 8443, Note_on_c, 0, 68, 127
1, 8522, Note_on_c, 0, 68, 0
1, 8522, Note_on_c, 0, 67, 127
1, 8549, Note_on_c, 0, 67, 0
1, 8549, Note_on_c, 0, 65, 127
1, 8576, Note_on_c, 0, 65, 0
1, 8576, Note_on_c, 0, 65, 127
1, 8603, Note_on_c, 0, 65, 0
1, 8603, Note_on_c, 0, 65, 127
1, 8617, Note_on_c, 0, 65, 0
1, 8617, Note_on_c, 0, 65, 127
1, 8657, Note_on_c, 0, 65, 0
1, 8657, Note_on_c, 0, 63, 127
1, 8684, Note_on_c, 0, 63, 0
1, 8684, Note_on_c, 0, 63, 127
1, 8711, Note_on_c, 0, 63, 0
1, 8711, Note_on_c, 0, 58, 127
1, 8725, Note_on_c, 0, 58, 0
1, 8725, Note_on_c, 0, 60, 127
1, 8765, Note_on_c, 0, 60, 0
1, 8765, Note_on_c, 0, 56, 127
1, 8973, Note_on_c, 0, 56, 0
1, 9156, Note_on_c, 0, 61, 127
1, 9170, Note_on_c, 0, 61, 0
1, 9170, Note_on_c, 0, 62, 127
1, 9184, Note_on_c, 0, 62, 0
1, 9184, Note_on_c, 0, 64, 127
1, 9211, Note_on_c, 0, 64, 0
1, 9211, Note_on_c, 0, 64, 127
1, 9238, Note_on_c, 0, 64, 0
1, 9238, Note_on_c, 0, 64, 127
1, 9265, Note_on_c, 0, 64, 0
1, 9265, Note_on_c, 0, 64, 127
1, 9279, Note_on_c, 0, 64, 0
1, 9279, Note_on_c, 0, 64, 127
1, 9293, Note_on_c, 0, 64, 0
1, 9293, Note_on_c, 0, 66, 127
1, 9307, Note_on_c, 0, 66, 0
1, 9307, Note_on_c, 0, 64, 127
1, 9321, Note_on_c, 0, 64, 0
1, 9321, Note_on_c, 0, 62, 127
1, 9374, Note_on_c, 0, 62, 0
1, 9374, Note_on_c, 0, 61, 127
1, 9388, Note_on_c, 0, 61, 0
1, 9388, Note_on_c, 0, 62, 127
1, 9402, Note_on_c, 0, 62, 0
1, 9402, Note_on_c, 0, 64, 127
1, 9429, Note_on_c, 0, 64, 0
1, 9429, Note_on_c, 0, 64, 127
1, 9456, Note_on_c, 0, 64, 0
1, 9456, Note_on_c, 0, 61, 127
1, 9470, Note_on_c, 0, 61, 0
1, 9470, Note_on_c, 0, 59, 127
1, 9484, Note_on_c, 0, 59, 0
1, 9484, Note_on_c, 0, 57, 127
1, 9511, Note_on_c, 0, 57, 0
1, 9511, Note_on_c, 0, 59, 127
1, 9590, Note_on_c, 0, 59, 0
1, 9590, Note_on_c, 0, 61, 127
1, 9604, Note_on_c, 0, 61, 0
1, 9604, Note_on_c, 0, 59, 127
1, 9618, Note_on_c, 0, 59, 0
1, 9618, Note_on_c, 0, 57, 127
1, 9632, Note_on_c, 0, 57, 0
1, 9632, Note_on_c, 0, 57, 127
1, 9646, Note_on_c, 0, 57, 0
1, 9646, Note_on_c, 0, 57, 127
1, 9673, Note_on_c, 0, 57, 0
1, 9673, Note_on_c, 0, 69, 127
1, 9687, Note_on_c, 0, 69, 0
1, 9687, Note_on_c, 0, 69, 127
1, 9727, Note_on_c, 0, 69, 0
1, 9727, Note_on_c, 0, 68, 127
1, 9741, Note_on_c, 0, 68, 0
1, 9741, Note_on_c, 0, 68, 127
1, 9768, Note_on_c, 0, 68, 0
1, 9768, Note_on_c, 0, 69, 127
1, 9782, Note_on_c, 0, 69, 0
1, 9782, Note_on_c, 0, 68, 127
1, 9796, Note_on_c, 0, 68, 0
1, 9796, Note_on_c, 0, 66, 127
1, 9810, Note_on_c, 0, 66, 0
1, 9810, Note_on_c, 0, 64, 127
1, 9837, Note_on_c, 0, 64, 0
1, 9837, Note_on_c, 0, 66, 127
1, 9851, Note_on_c, 0, 66, 0
1, 9851, Note_on_c, 0, 64, 127
1, 9865, Note_on_c, 0, 64, 0
1, 9865, Note_on_c, 0, 62, 127
1, 9879, Note_on_c, 0, 62, 0
1, 9879, Note_on_c, 0, 62, 127
1, 9906, Note_on_c, 0, 62, 0
1, 9906, Note_on_c, 0, 64, 127
1, 9920, Note_on_c, 0, 64, 0
1, 9920, Note_on_c, 0, 66, 127
1, 9947, Note_on_c, 0, 66, 0
1, 9947, Note_on_c, 0, 64, 127
1, 10052, Note_on_c, 0, 64, 0
1, 10052, Note_on_c, 0, 69, 127
1, 10079, Note_on_c, 0, 69, 0
1, 10079, Note_on_c, 0, 69, 127
1, 10132, Note_on_c, 0, 69, 0
1, 10132, Note_on_c, 0, 66, 127
1, 10146, Note_on_c, 0, 66, 0
1, 10146, Note_on_c, 0, 61, 127
1, 10160, Note_on_c, 0, 61, 0
1, 10160, Note_on_c, 0, 64, 127
1, 10174, Note_on_c, 0, 64, 0
1, 10174, Note_on_c, 0, 66, 127
1, 10188, Note_on_c, 0, 66, 0
1, 10188, Note_on_c, 0, 64, 127
1, 10267, Note_on_c, 0, 64, 0
1, 10267, Note_on_c, 0, 66, 127
1, 10294, Note_on_c, 0, 66, 0
1, 10294, Note_on_c, 0, 66, 127
1, 10321, Note_on_c, 0, 66, 0
1, 10321, Note_on_c, 0, 64, 127
1, 10335, Note_on_c, 0, 64, 0
1, 10335, Note_on_c, 0, 57, 127
1, 10362, Note_on_c, 0, 57, 0
1, 10362, Note_on_c, 0, 59, 127
1, 10376, Note_on_c, 0, 59, 0
1, 10376, Note_on_c, 0, 61, 127
1, 10455, Note_on_c, 0, 61, 0
1, 10455, Note_on_c, 0, 59, 127
1, 10482, Note_on_c, 0, 59, 0
1, 10482, Note_on_c, 0, 57, 127
1, 10509, Note_on_c, 0, 57, 0
1, 10509, Note_on_c, 0, 57, 127
1, 10536, Note_on_c, 0, 57, 0
1, 10536, Note_on_c, 0, 57, 127
1, 10550, Note_on_c, 0, 57, 0
1, 10550, Note_on_c, 0, 61, 127
1, 10577, Note_on_c, 0, 61, 0
1, 10577, Note_on_c, 0, 61, 127
1, 10591, Note_on_c, 0, 61, 0
1, 10591, Note_on_c, 0, 61, 127
1, 10605, Note_on_c, 0, 61, 0
1, 10605, Note_on_c, 0, 59, 127
1, 10619, Note_on_c, 0, 59, 0
1, 10619, Note_on_c, 0, 59, 127
1, 10672, Note_on_c, 0, 59, 0
1, 10672, Note_on_c, 0, 66, 127
1, 10686, Note_on_c, 0, 66, 0
1, 10686, Note_on_c, 0, 64, 127
1, 10700, Note_on_c, 0, 64, 0
1, 10700, Note_on_c, 0, 64, 127
1, 10740, Note_on_c, 0, 64, 0
1, 10740, Note_on_c, 0, 61, 127
1, 10754, Note_on_c, 0, 61, 0
1, 10754, Note_on_c, 0, 59, 127
1, 10768, Note_on_c, 0, 59, 0
1, 10768, Note_on_c, 0, 52, 127
1, 10782, Note_on_c, 0, 52, 0
1, 10782, Note_on_c, 0, 61, 127
1, 10796, Note_on_c, 0, 61, 0
1, 10796, Note_on_c, 0, 59, 127
1, 10810, Note_on_c, 0, 59, 0
1, 10810, Note_on_c, 0, 57, 127
1, 11019, Note_on_c, 0, 57, 0
1, 11019, Note_on_c, 0, 66, 127
1, 11033, Note_on_c, 0, 66, 0
1, 11033, Note_on_c, 0, 66, 127
1, 11047, Note_on_c, 0, 66, 0
1, 11047, Note_on_c, 0, 66, 127
1, 11061, Note_on_c, 0, 66, 0
1, 11061, Note_on_c, 0, 68, 127
1, 11075, Note_on_c, 0, 68, 0
1, 11075, Note_on_c, 0, 69, 127
1, 11089, Note_on_c, 0, 69, 0
1, 11089, Note_on_c, 0, 68, 127
1, 11103, Note_on_c, 0, 68, 0
1, 11103, Note_on_c, 0, 66, 127
1, 11130, Note_on_c, 0, 66, 0
1, 11130, Note_on_c, 0, 68, 127
1, 11144, Note_on_c, 0, 68, 0
1, 11144, Note_on_c, 0, 68, 127
1, 11171, Note_on_c, 0, 68, 0
1, 11171, Note_on_c, 0, 69, 127
1, 11185, Note_on_c, 0, 69, 0
1, 11185, Note_on_c, 0, 71, 127
1, 11199, Note_on_c, 0, 71, 0
1, 11199, Note_on_c, 0, 69, 127
1, 11213, Note_on_c, 0, 69, 0
1, 11213, Note_on_c, 0, 68, 127
1, 11240, Note_on_c, 0, 68, 0
1, 11240, Note_on_c, 0, 69, 127
1, 11254, Note_on_c, 0, 69, 0
1, 11254, Note_on_c, 0, 68, 127
1, 11268, Note_on_c, 0, 68, 0
1, 11268, Note_on_c, 0, 66, 127
1, 11282, Note_on_c, 0, 66, 0
1, 11282, Note_on_c, 0, 64, 127
1, 11309, Note_on_c, 0, 64, 0
1, 11309, Note_on_c, 0, 64, 127
1, 11323, Note_on_c, 0, 64, 0
1, 11323, Note_on_c, 0, 57, 127
1, 11337, Note_on_c, 0, 57, 0
1, 11337, Note_on_c, 0, 59, 127
1, 11351, Note_on_c, 0, 59, 0
1, 11351, Note_on_c, 0, 61, 127
1, 11456, Note_on_c, 0, 61, 0
1, 11456, Note_on_c, 0, 61, 127
1, 11483, Note_on_c, 0, 61, 0
1, 11483, Note_on_c, 0, 68, 127
1, 11497, Note_on_c, 0, 68, 0
1, 11497, Note_on_c, 0, 68, 127
1, 11524, Note_on_c, 0, 68, 0
1, 11524, Note_on_c, 0, 61, 127
1, 11551, Note_on_c, 0, 61, 0
1, 11551, Note_on_c, 0, 61, 127
1, 11565, Note_on_c, 0, 61, 0
1, 11565, Note_on_c, 0, 71, 127
1, 11592, Note_on_c, 0, 71, 0
1, 11592, Note_on_c, 0, 71, 127
1, 11619, Note_on_c, 0, 71, 0
1, 11619, Note_on_c, 0, 69, 127
1, 11633, Note_on_c, 0, 69, 0
1, 11633, Note_on_c, 0, 68, 127
1, 11673, Note_on_c, 0, 68, 0
1, 11673, Note_on_c, 0, 66, 127
1, 11882, Note_on_c, 0, 66, 0
1, 11882, Note_on_c, 0, 66, 127
1, 11896, Note_on_c, 0, 66, 0
1, 11896, Note_on_c, 0, 66, 127
1, 11910, Note_on_c, 0, 66, 0
1, 11910, Note_on_c, 0, 66, 127
1, 11924, Note_on_c, 0, 66, 0
1, 11924, Note_on_c, 0, 68, 127
1, 11938, Note_on_c, 0, 68, 0
1, 11938, Note_on_c, 0, 69, 127
1, 11952, Note_on_c, 0, 69, 0
1, 11952, Note_on_c, 0, 68, 127
1, 11966, Note_on_c, 0, 68, 0
1, 11966, Note_on_c, 0, 66, 127
1, 11993, Note_on_c, 0, 66, 0
1, 11993, Note_on_c, 0, 68, 127
1, 12007, Note_on_c, 0, 68, 0
1, 12007, Note_on_c, 0, 68, 127
1, 12034, Note_on_c, 0, 68, 0
1, 12034, Note_on_c, 0, 69, 127
1, 12048, Note_on_c, 0, 69, 0
1, 12048, Note_on_c, 0, 71, 127
1, 12075, Note_on_c, 0, 71, 0
1, 12075, Note_on_c, 0, 68, 127
1, 12089, Note_on_c, 0, 68, 0
1, 12089, Note_on_c, 0, 68, 127
1, 12103, Note_on_c, 0, 68, 0
1, 12103, Note_on_c, 0, 73, 127
1, 12182, Note_on_c, 0, 73, 0
1, 12182, Note_on_c, 0, 71, 127
1, 12196, Note_on_c, 0, 71, 0
1, 12196, Note_on_c, 0, 69, 127
1, 12210, Note_on_c, 0, 69, 0
1, 12210, Note_on_c, 0, 69, 127
1, 12289, Note_on_c, 0, 69, 0
1, 12289, Note_on_c, 0, 68, 127
1, 12316, Note_on_c, 0, 68, 0
1, 12316, Note_on_c, 0, 66, 127
1, 12343, Note_on_c, 0, 66, 0
1, 12343, Note_on_c, 0, 66, 127
1, 12370, Note_on_c, 0, 66, 0
1, 12370, Note_on_c, 0, 66, 127
1, 12384, Note_on_c, 0, 66, 0
1, 12384, Note_on_c, 0, 66, 127
1, 12424, Note_on_c, 0, 66, 0
1, 12424, Note_on_c, 0, 64, 127
1, 12451, Note_on_c, 0, 64, 0
1, 12451, Note_on_c, 0, 64, 127
1, 12478, Note_on_c, 0, 64, 0
1, 12478, Note_on_c, 0, 59, 127
1, 12492, Note_on_c, 0, 59, 0
1, 12492, Note_on_c, 0, 61, 127
1, 12532, Note_on_c, 0, 61, 0
1, 12532, Note_on_c, 0, 57, 127
1, 12741, Note_on_c, 0, 57, 0
1, 12741, Note_on_c, 0, 66, 127
1, 12755, Note_on_c, 0, 66, 0
1, 12755, Note_on_c, 0, 66, 127
1, 12769, Note_on_c, 0, 66, 0
1, 12769, Note_on_c, 0, 66, 127
1, 12783, Note_on_c, 0, 66, 0
1, 12783, Note_on_c, 0, 68, 127
1, 12797, Note_on_c, 0, 68, 0
1, 12797, Note_on_c, 0, 69, 127
1, 12811, Note_on_c, 0, 69, 0
1, 12811, Note_on_c, 0, 68, 127
1, 12825, Note_on_c, 0, 68, 0
1, 12825, Note_on_c, 0, 66, 127
1, 12852, Note_on_c, 0, 66, 0
1, 12852, Note_on_c, 0, 68, 127
1, 12866, Note_on_c, 0, 68, 0
1, 12866, Note_on_c, 0, 68, 127
1, 12893, Note_on_c, 0, 68, 0
1, 12893, Note_on_c, 0, 69, 127
1, 12907, Note_on_c, 0, 69, 0
1, 12907, Note_on_c, 0, 71, 127
1, 12921, Note_on_c, 0, 71, 0
1, 12921, Note_on_c, 0, 69, 127
1, 12935, Note_on_c, 0, 69, 0
1, 12935, Note_on_c, 0, 68, 127
1, 12962, Note_on_c, 0, 68, 0
1, 12962, Note_on_c, 0, 69, 127
1, 12976, Note_on_c, 0, 69, 0
1, 12976, Note_on_c, 0, 68, 127
1, 12990, Note_on_c, 0, 68, 0
1, 12990, Note_on_c, 0, 66, 127
1, 13004, Note_on_c, 0, 66, 0
1, 13004, Note_on_c, 0, 64, 127
1, 13031, Note_on_c, 0, 64, 0
1, 13031, Note_on_c, 0, 64, 127
1, 13045, Note_on_c, 0, 64, 0
1, 13045, Note_on_c, 0, 57, 127
1, 13059, Note_on_c, 0, 57, 0
1, 13059, Note_on_c, 0, 59, 127
1, 13073, Note_on_c, 0, 59, 0
1, 13073, Note_on_c, 0, 61, 127
1, 13178, Note_on_c, 0, 61, 0
1, 13178, Note_on_c, 0, 61, 127
1, 13205, Note_on_c, 0, 61, 0
1, 13205, Note_on_c, 0, 68, 127
1, 13219, Note_on_c, 0, 68, 0
1, 13219, Note_on_c, 0, 68, 127
1, 13246, Note_on_c, 0, 68, 0
1, 13246, Note_on_c, 0, 61, 127
1, 13273, Note_on_c, 0, 61, 0
1, 13273, Note_on_c, 0, 61, 127
1, 13287, Note_on_c, 0, 61, 0
1, 13287, Note_on_c, 0, 71, 127
1, 13314, Note_on_c, 0, 71, 0
1, 13314, Note_on_c, 0, 71, 127
1, 13341, Note_on_c, 0, 71, 0
1, 13341, Note_on_c, 0, 69, 127
1, 13355, Note_on_c, 0, 69, 0
1, 13355, Note_on_c, 0, 68, 127
1, 13395, Note_on_c, 0, 68, 0
1, 13395, Note_on_c, 0, 66, 127
1, 13604, Note_on_c, 0, 66, 0
1, 13604, Note_on_c, 0, 66, 127
1, 13618, Note_on_c, 0, 66, 0
1, 13618, Note_on_c, 0, 66, 127
1, 13632, Note_on_c, 0, 66, 0
1, 13632, Note_on_c, 0, 66, 127
1, 13646, Note_on_c, 0, 66, 0
1, 13646, Note_on_c, 0, 68, 127
1, 13660, Note_on_c, 0, 68, 0
1, 13660, Note_on_c, 0, 69, 127
1, 13674, Note_on_c, 0, 69, 0
1, 13674, Note_on_c, 0, 68, 127
1, 13688, Note_on_c, 0, 68, 0
1, 13688, Note_on_c, 0, 66, 127
1, 13715, Note_on_c, 0, 66, 0
1, 13715, Note_on_c, 0, 68, 127
1, 13729, Note_on_c, 0, 68, 0
1, 13729, Note_on_c, 0, 68, 127
1, 13756, Note_on_c, 0, 68, 0
1, 13756, Note_on_c, 0, 69, 127
1, 13770, Note_on_c, 0, 69, 0
1, 13770, Note_on_c, 0, 71, 127
1, 13797, Note_on_c, 0, 71, 0
1, 13797, Note_on_c, 0, 68, 127
1, 13811, Note_on_c, 0, 68, 0
1, 13811, Note_on_c, 0, 68, 127
1, 13825, Note_on_c, 0, 68, 0
1, 13825, Note_on_c, 0, 73, 127
1, 13904, Note_on_c, 0, 73, 0
1, 13904, Note_on_c, 0, 71, 127
1, 13918, Note_on_c, 0, 71, 0
1, 13918, Note_on_c, 0, 69, 127
1, 13932, Note_on_c, 0, 69, 0
1, 13932, Note_on_c, 0, 69, 127
1, 14011, Note_on_c, 0, 69, 0
1, 14011, Note_on_c, 0, 68, 127
1, 14038, Note_on_c, 0, 68, 0
1, 14038, Note_on_c, 0, 66, 127
1, 14065, Note_on_c, 0, 66, 0
1, 14065, Note_on_c, 0, 66, 127
1, 14092, Note_on_c, 0, 66, 0
1, 14092, Note_on_c, 0, 66, 127
1, 14106, Note_on_c, 0, 66, 0
1, 14106, Note_on_c, 0, 66, 127
1, 14146, Note_on_c, 0, 66, 0
1, 14146, Note_on_c, 0, 64, 127
1, 14173, Note_on_c, 0, 64, 0
1, 14173, Note_on_c, 0, 64, 127
1, 14200, Note_on_c, 0, 64, 0
1, 14200, Note_on_c, 0, 59, 127
1, 14214, Note_on_c, 0, 59, 0
1, 14214, Note_on_c, 0, 61, 127
1, 14254, Note_on_c, 0, 61, 0
1, 14254, Note_on_c, 0, 57, 127
1, 14463, Note_on_c, 0, 57, 0
1, 14463, Note_on_c, 0, 66, 127
1, 14477, Note_on_c, 0, 66, 0
1, 14477, Note_on_c, 0, 66, 127
1, 14491, Note_on_c, 0, 66, 0
1, 14491, Note_on_c, 0, 66, 127
1, 14505, Note_on_c, 0, 66, 0
1, 14505, Note_on_c, 0, 68, 127
1, 14519, Note_on_c, 0, 68, 0
1, 14519, Note_on_c, 0, 69, 127
1, 14546, Note_on_c, 0, 69, 0
1, 14546, Note_on_c, 0, 66, 127
1, 14573, Note_on_c, 0, 66, 0
1, 14573, Note_on_c, 0, 68, 127
1, 14587, Note_on_c, 0, 68, 0
1, 14587, Note_on_c, 0, 68, 127
1, 14614, Note_on_c, 0, 68, 0
1, 14614, Note_on_c, 0, 69, 127
1, 14628, Note_on_c, 0, 69, 0
1, 14628, Note_on_c, 0, 71, 127
1, 14655, Note_on_c, 0, 71, 0
1, 14655, Note_on_c, 0, 68, 127
1, 14682, Note_on_c, 0, 68, 0
1, 14682, Note_on_c, 0, 69, 127
1, 14696, Note_on_c, 0, 69, 0
1, 14696, Note_on_c, 0, 68, 127
1, 14710, Note_on_c, 0, 68, 0
1, 14710, Note_on_c, 0, 66, 127
1, 14724, Note_on_c, 0, 66, 0
1, 14724, Note_on_c, 0, 64, 127
1, 14751, Note_on_c, 0, 64, 0
1, 14751, Note_on_c, 0, 64, 127
1, 14765, Note_on_c, 0, 64, 0
1, 14765, Note_on_c, 0, 57, 127
1, 14779, Note_on_c, 0, 57, 0
1, 14779, Note_on_c, 0, 59, 127
1, 14793, Note_on_c, 0, 59, 0
1, 14793, Note_on_c, 0, 61, 127
1, 14898, Note_on_c, 0, 61, 0
1, 14898, Note_on_c, 0, 61, 127
1, 14925, Note_on_c, 0, 61, 0
1, 14925, Note_on_c, 0, 68, 127
1, 14939, Note_on_c, 0, 68, 0
1, 14939, Note_on_c, 0, 68, 127
1, 14966, Note_on_c, 0, 68, 0
1, 14966, Note_on_c, 0, 61, 127
1, 14993, Note_on_c, 0, 61, 0
1, 14993, Note_on_c, 0, 61, 127
1, 15007, Note_on_c, 0, 61, 0
1, 15007, Note_on_c, 0, 71, 127
1, 15034, Note_on_c, 0, 71, 0
1, 15034, Note_on_c, 0, 71, 127
1, 15061, Note_on_c, 0, 71, 0
1, 15061, Note_on_c, 0, 69, 127
1, 15075, Note_on_c, 0, 69, 0
1, 15075, Note_on_c, 0, 68, 127
1, 15102, Note_on_c, 0, 68, 0
1, 15102, Note_on_c, 0, 66, 127
1, 15324, Note_on_c, 0, 66, 0
1, 15324, Note_on_c, 0, 66, 127
1, 15338, Note_on_c, 0, 66, 0
1, 15338, Note_on_c, 0, 66, 127
1, 15352, Note_on_c, 0, 66, 0
1, 15352, Note_on_c, 0, 66, 127
1, 15366, Note_on_c, 0, 66, 0
1, 15366, Note_on_c, 0, 68, 127
1, 15380, Note_on_c, 0, 68, 0
1, 15380, Note_on_c, 0, 69, 127
1, 15407, Note_on_c, 0, 69, 0
1, 15407, Note_on_c, 0, 66, 127
1, 15434, Note_on_c, 0, 66, 0
1, 15434, Note_on_c, 0, 68, 127
1, 15448, Note_on_c, 0, 68, 0
1, 15448, Note_on_c, 0, 68, 127
1, 15475, Note_on_c, 0, 68, 0
1, 15475, Note_on_c, 0, 69, 127
1, 15489, Note_on_c, 0, 69, 0
1, 15489, Note_on_c, 0, 71, 127
1, 15516, Note_on_c, 0, 71, 0
1, 15516, Note_on_c, 0, 68, 127
1, 15530, Note_on_c, 0, 68, 0
1, 15530, Note_on_c, 0, 68, 127
1, 15544, Note_on_c, 0, 68, 0
1, 15544, Note_on_c, 0, 73, 127
1, 15623, Note_on_c, 0, 73, 0
1, 15623, Note_on_c, 0, 71, 127
1, 15637, Note_on_c, 0, 71, 0
1, 15637, Note_on_c, 0, 69, 127
1, 15651, Note_on_c, 0, 69, 0
1, 15651, Note_on_c, 0, 69, 127
1, 15730, Note_on_c, 0, 69, 0
1, 15730, Note_on_c, 0, 68, 127
1, 15757, Note_on_c, 0, 68, 0
1, 15757, Note_on_c, 0, 66, 127
1, 15784, Note_on_c, 0, 66, 0
1, 15784, Note_on_c, 0, 66, 127
1, 15811, Note_on_c, 0, 66, 0
1, 15811, Note_on_c, 0, 66, 127
1, 15825, Note_on_c, 0, 66, 0
1, 15825, Note_on_c, 0, 66, 127
1, 15865, Note_on_c, 0, 66, 0
1, 15865, Note_on_c, 0, 71, 127
1, 15892, Note_on_c, 0, 71, 0
1, 15892, Note_on_c, 0, 71, 127
1, 15919, Note_on_c, 0, 71, 0
1, 15919, Note_on_c, 0, 71, 127
1, 15933, Note_on_c, 0, 71, 0
1, 15933, Note_on_c, 0, 73, 127
1, 15973, Note_on_c, 0, 73, 0
1, 15973, Note_on_c, 0, 69, 127
1, 16182, Note_on_c, 0, 69, 0
1, 16182, Note_on_c, 0, 66, 127
1, 16196, Note_on_c, 0, 66, 0
1, 16196, Note_on_c, 0, 66, 127
1, 16210, Note_on_c, 0, 66, 0
1, 16210, Note_on_c, 0, 66, 127
1, 16224, Note_on_c, 0, 66, 0
1, 16224, Note_on_c, 0, 68, 127
1, 16238, Note_on_c, 0, 68, 0
1, 16238, Note_on_c, 0, 69, 127
1, 16265, Note_on_c, 0, 69, 0
1, 16265, Note_on_c, 0, 66, 127
1, 16292, Note_on_c, 0, 66, 0
1, 16292, Note_on_c, 0, 68, 127
1, 16306, Note_on_c, 0, 68, 0
1, 16306, Note_on_c, 0, 68, 127
1, 16333, Note_on_c, 0, 68, 0
1, 16333, Note_on_c, 0, 69, 127
1, 16347, Note_on_c, 0, 69, 0
1, 16347, Note_on_c, 0, 71, 127
1, 16374, Note_on_c, 0, 71, 0
1, 16374, Note_on_c, 0, 68, 127
1, 16401, Note_on_c, 0, 68, 0
1, 16401, Note_on_c, 0, 69, 127
1, 16415, Note_on_c, 0, 69, 0
1, 16415, Note_on_c, 0, 68, 127
1, 16429, Note_on_c, 0, 68, 0
1, 16429, Note_on_c, 0, 66, 127
1, 16443, Note_on_c, 0, 66, 0
1, 16443, Note_on_c, 0, 64, 127
1, 16470, Note_on_c, 0, 64, 0
1, 16470, Note_on_c, 0, 64, 127
1, 16484, Note_on_c, 0, 64, 0
1, 16484, Note_on_c, 0, 57, 127
1, 16498, Note_on_c, 0, 57, 0
1, 16498, Note_on_c, 0, 59, 127
1, 16512, Note_on_c, 0, 59, 0
1, 16512, Note_on_c, 0, 61, 127
1, 16617, Note_on_c, 0, 61, 0
1, 16617, Note_on_c, 0, 61, 127
1, 16644, Note_on_c, 0, 61, 0
1, 16644, Note_on_c, 0, 68, 127
1, 16658, Note_on_c, 0, 68, 0
1, 16658, Note_on_c, 0, 68, 127
1, 16685, Note_on_c, 0, 68, 0
1, 16685, Note_on_c, 0, 61, 127
1, 16712, Note_on_c, 0, 61, 0
1, 16712, Note_on_c, 0, 61, 127
1, 16726, Note_on_c, 0, 61, 0
1, 16726, Note_on_c, 0, 71, 127
1, 16753, Note_on_c, 0, 71, 0
1, 16753, Note_on_c, 0, 71, 127
1, 16780, Note_on_c, 0, 71, 0
1, 16780, Note_on_c, 0, 69, 127
1, 16794, Note_on_c, 0, 69, 0
1, 16794, Note_on_c, 0, 68, 127
1, 16834, Note_on_c, 0, 68, 0
1, 16834, Note_on_c, 0, 66, 127
1, 17043, Note_on_c, 0, 66, 0
1, 17043, Note_on_c, 0, 66, 127
1, 17057, Note_on_c, 0, 66, 0
1, 17057, Note_on_c, 0, 66, 127
1, 17071, Note_on_c, 0, 66, 0
1, 17071, Note_on_c, 0, 66, 127
1, 17085, Note_on_c, 0, 66, 0
1, 17085, Note_on_c, 0, 68, 127
1, 17099, Note_on_c, 0, 68, 0
1, 17099, Note_on_c, 0, 69, 127
1, 17126, Note_on_c, 0, 69, 0
1, 17126, Note_on_c, 0, 66, 127
1, 17153, Note_on_c, 0, 66, 0
1, 17153, Note_on_c, 0, 68, 127
1, 17167, Note_on_c, 0, 68, 0
1, 17167, Note_on_c, 0, 68, 127
1, 17194, Note_on_c, 0, 68, 0
1, 17194, Note_on_c, 0, 69, 127
1, 17208, Note_on_c, 0, 69, 0
1, 17208, Note_on_c, 0, 71, 127
1, 17235, Note_on_c, 0, 71, 0
1, 17235, Note_on_c, 0, 68, 127
1, 17249, Note_on_c, 0, 68, 0
1, 17249, Note_on_c, 0, 68, 127
1, 17263, Note_on_c, 0, 68, 0
1, 17263, Note_on_c, 0, 73, 127
1, 17342, Note_on_c, 0, 73, 0
1, 17342, Note_on_c, 0, 71, 127
1, 17356, Note_on_c, 0, 71, 0
1, 17356, Note_on_c, 0, 69, 127
1, 17370, Note_on_c, 0, 69, 0
1, 17370, Note_on_c, 0, 69, 127
1, 17449, Note_on_c, 0, 69, 0
1, 17449, Note_on_c, 0, 68, 127
1, 17476, Note_on_c, 0, 68, 0
1, 17476, Note_on_c, 0, 66, 127
1, 17489, Note_on_c, 0, 66, 0
1, 17503, Note_on_c, 0, 66, 127
1, 17530, Note_on_c, 0, 66, 0
1, 17530, Note_on_c, 0, 66, 127
1, 17544, Note_on_c, 0, 66, 0
1, 17544, Note_on_c, 0, 66, 127
1, 17584, Note_on_c, 0, 66, 0
1, 17584, Note_on_c, 0, 64, 127
1, 17611, Note_on_c, 0, 64, 0
1, 17611, Note_on_c, 0, 64, 127
1, 17638, Note_on_c, 0, 64, 0
1, 17638, Note_on_c, 0, 59, 127
1, 17652, Note_on_c, 0, 59, 0
1, 17652, Note_on_c, 0, 61, 127
1, 17692, Note_on_c, 0, 61, 0
1, 17692, Note_on_c, 0, 57, 127
1, 17796, Note_on_c, 0, 57, 0
1, 17796, End_track
0, 0, End_of_file
