0, 0, Header, 0, 1, 960
1, 0, Start_track
1, 0, Title_t, "untitled"
1, 0, Copyright_t, "Copyright c 2000 by YiHsin"
1, 0, Text_t, "YiHsin\012"
1, 0, Time_signature, 4, 2, 24, 8
1, 0, Key_signature, 0, "major"
1, 0, Tempo, 461538
1, 0, Program_c, 0, 24
1, 0, Control_c, 0, 7, 127
1, 0, Note_on_c, 0, 66, 100
1, 960, Note_on_c, 0, 66, 0
1, 960, Note_on_c, 0, 64, 100
1, 1440, Note_on_c, 0, 64, 0
1, 1440, Note_on_c, 0, 66, 100
1, 1920, Note_on_c, 0, 66, 0
1, 1920, Note_on_c, 0, 69, 100
1, 2880, Note_on_c, 0, 69, 0
1, 2880, Note_on_c, 0, 66, 100
1, 3360, Note_on_c, 0, 66, 0
1, 3360, Note_on_c, 0, 64, 100
1, 3840, Note_on_c, 0, 64, 0
1, 3840, Note_on_c, 0, 66, 100
1, 6720, Note_on_c, 0, 66, 0
1, 7680, Note_on_c, 0, 64, 100
1, 9120, Note_on_c, 0, 64, 0
1, 9120, Note_on_c, 0, 59, 100
1, 9600, Note_on_c, 0, 59, 0
1, 9600, Note_on_c, 0, 62, 100
1, 10080, Note_on_c, 0, 62, 0
1, 10080, Note_on_c, 0, 64, 100
1, 10320, Note_on_c, 0, 64, 0
1, 10320, Note_on_c, 0, 62, 100
1, 10560, Note_on_c, 0, 62, 0
1, 10560, Note_on_c, 0, 59, 100
1, 11040, Note_on_c, 0, 59, 0
1, 11040, Note_on_c, 0, 57, 100
1, 11520, Note_on_c, 0, 57, 0
1, 11520, Note_on_c, 0, 59, 100
1, 14400, Note_on_c, 0, 59, 0
1, 15360, Note_on_c, 0, 71, 100
1, 15840, Note_on_c, 0, 71, 0
1, 15840, Note_on_c, 0, 71, 100
1, 16320, Note_on_c, 0, 71, 0
1, 16320, Note_on_c, 0, 71, 100
1, 16800, Note_on_c, 0, 71, 0
1, 16800, Note_on_c, 0, 69, 100
1, 17280, Note_on_c, 0, 69, 0
1, 17280, Note_on_c, 0, 66, 100
1, 18240, Note_on_c, 0, 66, 0
1, 18240, Note_on_c, 0, 66, 100
1, 19200, Note_on_c, 0, 66, 0
1, 19200, Note_on_c, 0, 66, 100
1, 20160, Note_on_c, 0, 66, 0
1, 20160, Note_on_c, 0, 64, 100
1, 20640, Note_on_c, 0, 64, 0
1, 20640, Note_on_c, 0, 66, 100
1, 21120, Note_on_c, 0, 66, 0
1, 21120, Note_on_c, 0, 62, 100
1, 22080, Note_on_c, 0, 62, 0
1, 22080, Note_on_c, 0, 59, 100
1, 23040, Note_on_c, 0, 59, 0
1, 23040, Note_on_c, 0, 64, 100
1, 23520, Note_on_c, 0, 64, 0
1, 23520, Note_on_c, 0, 64, 100
1, 24000, Note_on_c, 0, 64, 0
1, 24000, Note_on_c, 0, 64, 100
1, 24480, Note_on_c, 0, 64, 0
1, 24480, Note_on_c, 0, 66, 100
1, 24960, Note_on_c, 0, 66, 0
1, 24960, Note_on_c, 0, 69, 100
1, 25920, Note_on_c, 0, 69, 0
1, 25920, Note_on_c, 0, 66, 100
1, 26880, Note_on_c, 0, 66, 0
1, 26880, Note_on_c, 0, 64, 100
1, 27360, Note_on_c, 0, 64, 0
1, 27360, Note_on_c, 0, 66, 100
1, 27840, Note_on_c, 0, 66, 0
1, 27840, Note_on_c, 0, 64, 100
1, 28320, Note_on_c, 0, 64, 0
1, 28320, Note_on_c, 0, 62, 100
1, 28800, Note_on_c, 0, 62, 0
1, 28800, Note_on_c, 0, 62, 100
1, 29280, Note_on_c, 0, 62, 0
1, 29280, Note_on_c, 0, 59, 100
1, 30240, Note_on_c, 0, 59, 0
1, 30240, Note_on_c, 0, 57, 100
1, 30720, Note_on_c, 0, 57, 0
1, 30720, Note_on_c, 0, 59, 100
1, 33600, Note_on_c, 0, 59, 0
1, 34560, Note_on_c, 0, 59, 100
1, 35040, Note_on_c, 0, 59, 0
1, 35040, Note_on_c, 0, 62, 100
1, 35520, Note_on_c, 0, 62, 0
1, 35520, Note_on_c, 0, 57, 100
1, 36000, Note_on_c, 0, 57, 0
1, 36000, Note_on_c, 0, 59, 100
1, 36480, Note_on_c, 0, 59, 0
1, 36480, Note_on_c, 0, 64, 100
1, 36960, Note_on_c, 0, 64, 0
1, 36960, Note_on_c, 0, 66, 100
1, 37440, Note_on_c, 0, 66, 0
1, 37440, Note_on_c, 0, 62, 100
1, 37920, Note_on_c, 0, 62, 0
1, 37920, Note_on_c, 0, 64, 100
1, 38400, Note_on_c, 0, 64, 0
1, 38400, Note_on_c, 0, 66, 100
1, 41280, Note_on_c, 0, 66, 0
1, 42240, Note_on_c, 0, 64, 100
1, 43680, Note_on_c, 0, 64, 0
1, 43680, Note_on_c, 0, 59, 100
1, 44160, Note_on_c, 0, 59, 0
1, 44160, Note_on_c, 0, 62, 100
1, 44640, Note_on_c, 0, 62, 0
1, 44640, Note_on_c, 0, 64, 100
1, 44880, Note_on_c, 0, 64, 0
1, 44880, Note_on_c, 0, 62, 100
1, 45120, Note_on_c, 0, 62, 0
1, 45120, Note_on_c, 0, 59, 100
1, 45600, Note_on_c, 0, 59, 0
1, 45600, Note_on_c, 0, 57, 100
1, 46080, Note_on_c, 0, 57, 0
1, 46080, Note_on_c, 0, 59, 100
1, 48960, Note_on_c, 0, 59, 0
1, 49920, Note_on_c, 0, 71, 100
1, 50400, Note_on_c, 0, 71, 0
1, 50400, Note_on_c, 0, 71, 100
1, 50880, Note_on_c, 0, 71, 0
1, 50880, Note_on_c, 0, 71, 100
1, 51360, Note_on_c, 0, 71, 0
1, 51360, Note_on_c, 0, 69, 100
1, 51840, Note_on_c, 0, 69, 0
1, 51840, Note_on_c, 0, 66, 100
1, 52800, Note_on_c, 0, 66, 0
1, 52800, Note_on_c, 0, 66, 100
1, 53760, Note_on_c, 0, 66, 0
1, 53760, Note_on_c, 0, 66, 100
1, 54720, Note_on_c, 0, 66, 0
1, 54720, Note_on_c, 0, 64, 100
1, 55200, Note_on_c, 0, 64, 0
1, 55200, Note_on_c, 0, 66, 100
1, 55680, Note_on_c, 0, 66, 0
1, 55680, Note_on_c, 0, 62, 100
1, 56640, Note_on_c, 0, 62, 0
1, 56640, Note_on_c, 0, 59, 100
1, 57600, Note_on_c, 0, 59, 0
1, 57600, Note_on_c, 0, 64, 100
1, 58080, Note_on_c, 0, 64, 0
1, 58080, Note_on_c, 0, 64, 100
1, 58560, Note_on_c, 0, 64, 0
1, 58560, Note_on_c, 0, 64, 100
1, 59040, Note_on_c, 0, 64, 0
1, 59040, Note_on_c, 0, 66, 100
1, 59520, Note_on_c, 0, 66, 0
1, 59520, Note_on_c, 0, 69, 100
1, 60480, Note_on_c, 0, 69, 0
1, 60480, Note_on_c, 0, 66, 100
1, 61440, Note_on_c, 0, 66, 0
1, 61440, Note_on_c, 0, 64, 100
1, 61920, Note_on_c, 0, 64, 0
1, 61920, Note_on_c, 0, 66, 100
1, 62400, Note_on_c, 0, 66, 0
1, 62400, Note_on_c, 0, 64, 100
1, 62880, Note_on_c, 0, 64, 0
1, 62880, Note_on_c, 0, 62, 100
1, 63360, Note_on_c, 0, 62, 0
1, 63360, Note_on_c, 0, 62, 100
1, 63840, Note_on_c, 0, 62, 0
1, 63840, Note_on_c, 0, 59, 100
1, 64800, Note_on_c, 0, 59, 0
1, 64800, Note_on_c, 0, 57, 100
1, 65280, Note_on_c, 0, 57, 0
1, 65280, Note_on_c, 0, 59, 100
1, 67200, Note_on_c, 0, 59, 0
1, 67200, End_track
0, 0, End_of_file
