0, 0, Header, 1, 2, 960
1, 0, Start_track
1, 0, Time_signature, 4, 2, 24, 8
1, 0, Key_signature, 3, "major"
1, 0, Tempo, 500000
1, 0, End_track
2, 0, Start_track
2, 0, Title_t, "GUITA"
2, 0, Program_c, 0, 0
2, 0, Control_c, 0, 7, 127
2, 0, Control_c, 0, 10, 64
2, 960, Note_on_c, 0, 61, 100
2, 1440, Note_on_c, 0, 61, 0
2, 1440, Note_on_c, 0, 64, 100
2, 1920, Note_on_c, 0, 64, 0
2, 1920, Note_on_c, 0, 64, 100
2, 2880, Note_on_c, 0, 64, 0
2, 2880, Note_on_c, 0, 64, 100
2, 3360, Note_on_c, 0, 64, 0
2, 3360, Note_on_c, 0, 61, 100
2, 3840, Note_on_c, 0, 61, 0
2, 3840, Note_on_c, 0, 66, 100
2, 4320, Note_on_c, 0, 66, 0
2, 4320, Note_on_c, 0, 66, 100
2, 4800, Note_on_c, 0, 66, 0
2, 4800, Note_on_c, 0, 68, 100
2, 5280, Note_on_c, 0, 68, 0
2, 5280, Note_on_c, 0, 66, 100
2, 6240, Note_on_c, 0, 66, 0
2, 6240, Note_on_c, 0, 66, 100
2, 6720, Note_on_c, 0, 66, 0
2, 6720, Note_on_c, 0, 66, 100
2, 7200, Note_on_c, 0, 66, 0
2, 7200, Note_on_c, 0, 64, 100
2, 7680, Note_on_c, 0, 64, 0
2, 7680, Note_on_c, 0, 69, 100
2, 8640, Note_on_c, 0, 69, 0
2, 8640, Note_on_c, 0, 69, 100
2, 9600, Note_on_c, 0, 69, 0
2, 9600, Note_on_c, 0, 69, 100
2, 10080, Note_on_c, 0, 69, 0
2, 10080, Note_on_c, 0, 66, 100
2, 10560, Note_on_c, 0, 66, 0
2, 10560, Note_on_c, 0, 69, 100
2, 11040, Note_on_c, 0, 69, 0
2, 11040, Note_on_c, 0, 66, 100
2, 11520, Note_on_c, 0, 66, 0
2, 11520, Note_on_c, 0, 64, 100
2, 15360, Note_on_c, 0, 64, 0
2, 16320, Note_on_c, 0, 61, 100
2, 16800, Note_on_c, 0, 61, 0
2, 16800, Note_on_c, 0, 64, 100
2, 17280, Note_on_c, 0, 64, 0
2, 17280, Note_on_c, 0, 64, 100
2, 18720, Note_on_c, 0, 64, 0
2, 18720, Note_on_c, 0, 61, 100
2, 19200, Note_on_c, 0, 61, 0
2, 19200, Note_on_c, 0, 66, 100
2, 19680, Note_on_c, 0, 66, 0
2, 19680, Note_on_c, 0, 66, 100
2, 20160, Note_on_c, 0, 66, 0
2, 20160, Note_on_c, 0, 68, 100
2, 20640, Note_on_c, 0, 68, 0
2, 20640, Note_on_c, 0, 66, 100
2, 21600, Note_on_c, 0, 66, 0
2, 21600, Note_on_c, 0, 66, 100
2, 22080, Note_on_c, 0, 66, 0
2, 22080, Note_on_c, 0, 66, 100
2, 22560, Note_on_c, 0, 66, 0
2, 22560, Note_on_c, 0, 64, 100
2, 23040, Note_on_c, 0, 64, 0
2, 23040, Note_on_c, 0, 69, 100
2, 24000, Note_on_c, 0, 69, 0
2, 24000, Note_on_c, 0, 69, 100
2, 24480, Note_on_c, 0, 69, 0
2, 24480, Note_on_c, 0, 69, 100
2, 24960, Note_on_c, 0, 69, 0
2, 24960, Note_on_c, 0, 69, 100
2, 25440, Note_on_c, 0, 69, 0
2, 25440, Note_on_c, 0, 66, 100
2, 25920, Note_on_c, 0, 66, 0
2, 25920, Note_on_c, 0, 66, 100
2, 26400, Note_on_c, 0, 66, 0
2, 26400, Note_on_c, 0, 69, 100
2, 26880, Note_on_c, 0, 69, 0
2, 26880, Note_on_c, 0, 71, 100
2, 30720, Note_on_c, 0, 71, 0
2, 30720, Note_on_c, 0, 76, 100
2, 31200, Note_on_c, 0, 76, 0
2, 31200, Note_on_c, 0, 76, 100
2, 32160, Note_on_c, 0, 76, 0
2, 32160, Note_on_c, 0, 76, 100
2, 33120, Note_on_c, 0, 76, 0
2, 33120, Note_on_c, 0, 76, 100
2, 33600, Note_on_c, 0, 76, 0
2, 33600, Note_on_c, 0, 73, 100
2, 34080, Note_on_c, 0, 73, 0
2, 34080, Note_on_c, 0, 71, 100
2, 34560, Note_on_c, 0, 71, 0
2, 34560, Note_on_c, 0, 69, 100
2, 35040, Note_on_c, 0, 69, 0
2, 35040, Note_on_c, 0, 69, 100
2, 36000, Note_on_c, 0, 69, 0
2, 36000, Note_on_c, 0, 66, 100
2, 36960, Note_on_c, 0, 66, 0
2, 36960, Note_on_c, 0, 69, 100
2, 37440, Note_on_c, 0, 69, 0
2, 37440, Note_on_c, 0, 66, 100
2, 37920, Note_on_c, 0, 66, 0
2, 37920, Note_on_c, 0, 69, 100
2, 38400, Note_on_c, 0, 69, 0
2, 38400, Note_on_c, 0, 71, 100
2, 38880, Note_on_c, 0, 71, 0
2, 38880, Note_on_c, 0, 71, 100
2, 39360, Note_on_c, 0, 71, 0
2, 39360, Note_on_c, 0, 71, 100
2, 39840, Note_on_c, 0, 71, 0
2, 39840, Note_on_c, 0, 71, 100
2, 40320, Note_on_c, 0, 71, 0
2, 40320, Note_on_c, 0, 71, 100
2, 40800, Note_on_c, 0, 71, 0
2, 40800, Note_on_c, 0, 69, 100
2, 41280, Note_on_c, 0, 69, 0
2, 41280, Note_on_c, 0, 73, 100
2, 41760, Note_on_c, 0, 73, 0
2, 41760, Note_on_c, 0, 71, 100
2, 42240, Note_on_c, 0, 71, 0
2, 42240, Note_on_c, 0, 71, 100
2, 46080, Note_on_c, 0, 71, 0
2, 46080, Note_on_c, 0, 73, 100
2, 46560, Note_on_c, 0, 73, 0
2, 46560, Note_on_c, 0, 73, 100
2, 47520, Note_on_c, 0, 73, 0
2, 47520, Note_on_c, 0, 73, 100
2, 48000, Note_on_c, 0, 73, 0
2, 48000, Note_on_c, 0, 73, 100
2, 48480, Note_on_c, 0, 73, 0
2, 48480, Note_on_c, 0, 71, 100
2, 48960, Note_on_c, 0, 71, 0
2, 48960, Note_on_c, 0, 71, 100
2, 49920, Note_on_c, 0, 71, 0
2, 49920, Note_on_c, 0, 69, 100
2, 50400, Note_on_c, 0, 69, 0
2, 50400, Note_on_c, 0, 69, 100
2, 51360, Note_on_c, 0, 69, 0
2, 51360, Note_on_c, 0, 69, 100
2, 51840, Note_on_c, 0, 69, 0
2, 51840, Note_on_c, 0, 71, 100
2, 52320, Note_on_c, 0, 71, 0
2, 52320, Note_on_c, 0, 69, 100
2, 52800, Note_on_c, 0, 69, 0
2, 52800, Note_on_c, 0, 66, 100
2, 53280, Note_on_c, 0, 66, 0
2, 53280, Note_on_c, 0, 64, 100
2, 53760, Note_on_c, 0, 64, 0
2, 53760, Note_on_c, 0, 64, 100
2, 54240, Note_on_c, 0, 64, 0
2, 54240, Note_on_c, 0, 64, 100
2, 55200, Note_on_c, 0, 64, 0
2, 55200, Note_on_c, 0, 64, 100
2, 55680, Note_on_c, 0, 64, 0
2, 55680, Note_on_c, 0, 66, 100
2, 56160, Note_on_c, 0, 66, 0
2, 56160, Note_on_c, 0, 64, 100
2, 56640, Note_on_c, 0, 64, 0
2, 56640, Note_on_c, 0, 71, 100
2, 57120, Note_on_c, 0, 71, 0
2, 57120, Note_on_c, 0, 73, 100
2, 57600, Note_on_c, 0, 73, 0
2, 57600, Note_on_c, 0, 69, 100
2, 61440, Note_on_c, 0, 69, 0
2, 61440, End_track
0, 0, End_of_file
