0, 0, Header, 1, 2, 480
1, 0, Start_track
1, 0, Title_t, "untitled"
1, 0, Time_signature, 4, 2, 24, 8
1, 0, Key_signature, 0, "major"
1, 0, Tempo, 357143
1, 0, End_track
2, 0, Start_track
2, 0, MIDI_port, 0
2, 0, Title_t, "MAJOR_TRACK"
2, 0, Program_c, 0, 0
2, 1440, Note_on_c, 0, 60, 115
2, 1680, Note_on_c, 0, 60, 0
2, 1680, Note_on_c, 0, 62, 115
2, 1920, Note_on_c, 0, 62, 0
2, 1920, Note_on_c, 0, 64, 115
2, 2400, Note_on_c, 0, 64, 0
2, 2400, Note_on_c, 0, 64, 115
2, 2880, Note_on_c, 0, 64, 0
2, 2880, Note_on_c, 0, 60, 115
2, 3360, Note_on_c, 0, 60, 0
2, 3360, Note_on_c, 0, 60, 115
2, 3600, Note_on_c, 0, 60, 0
2, 3600, Note_on_c, 0, 62, 115
2, 3840, Note_on_c, 0, 62, 0
2, 3840, Note_on_c, 0, 64, 115
2, 4320, Note_on_c, 0, 64, 0
2, 4320, Note_on_c, 0, 64, 115
2, 4800, Note_on_c, 0, 64, 0
2, 4800, Note_on_c, 0, 60, 115
2, 5280, Note_on_c, 0, 60, 0
2, 5280, Note_on_c, 0, 60, 115
2, 5520, Note_on_c, 0, 60, 0
2, 5520, Note_on_c, 0, 62, 115
2, 5760, Note_on_c, 0, 62, 0
2, 5760, Note_on_c, 0, 64, 115
2, 6240, Note_on_c, 0, 64, 0
2, 6240, Note_on_c, 0, 64, 115
2, 6720, Note_on_c, 0, 64, 0
2, 6720, Note_on_c, 0, 65, 115
2, 7200, Note_on_c, 0, 65, 0
2, 7200, Note_on_c, 0, 64, 115
2, 7680, Note_on_c, 0, 64, 0
2, 7680, Note_on_c, 0, 62, 115
2, 9120, Note_on_c, 0, 62, 0
2, 9120, Note_on_c, 0, 59, 115
2, 9360, Note_on_c, 0, 59, 0
2, 9360, Note_on_c, 0, 60, 115
2, 9600, Note_on_c, 0, 60, 0
2, 9600, Note_on_c, 0, 62, 115
2, 10080, Note_on_c, 0, 62, 0
2, 10080, Note_on_c, 0, 62, 115
2, 10560, Note_on_c, 0, 62, 0
2, 10560, Note_on_c, 0, 59, 115
2, 11040, Note_on_c, 0, 59, 0
2, 11040, Note_on_c, 0, 59, 115
2, 11280, Note_on_c, 0, 59, 0
2, 11280, Note_on_c, 0, 60, 115
2, 11520, Note_on_c, 0, 60, 0
2, 11520, Note_on_c, 0, 62, 115
2, 12000, Note_on_c, 0, 62, 0
2, 12000, Note_on_c, 0, 62, 115
2, 12480, Note_on_c, 0, 62, 0
2, 12480, Note_on_c, 0, 59, 115
2, 12960, Note_on_c, 0, 59, 0
2, 12960, Note_on_c, 0, 59, 115
2, 13200, Note_on_c, 0, 59, 0
2, 13200, Note_on_c, 0, 62, 115
2, 13440, Note_on_c, 0, 62, 0
2, 13440, Note_on_c, 0, 67, 115
2, 13680, Note_on_c, 0, 67, 0
2, 13680, Note_on_c, 0, 67, 115
2, 13920, Note_on_c, 0, 67, 0
2, 13920, Note_on_c, 0, 67, 115
2, 14160, Note_on_c, 0, 67, 0
2, 14160, Note_on_c, 0, 67, 115
2, 14400, Note_on_c, 0, 67, 0
2, 14400, Note_on_c, 0, 65, 115
2, 14880, Note_on_c, 0, 65, 0
2, 14880, Note_on_c, 0, 62, 115
2, 15360, Note_on_c, 0, 62, 0
2, 15360, Note_on_c, 0, 60, 115
2, 16800, Note_on_c, 0, 60, 0
2, 16800, Note_on_c, 0, 60, 115
2, 17040, Note_on_c, 0, 60, 0
2, 17040, Note_on_c, 0, 62, 115
2, 17280, Note_on_c, 0, 62, 0
2, 17280, Note_on_c, 0, 64, 115
2, 18720, Note_on_c, 0, 64, 0
2, 18720, Note_on_c, 0, 60, 115
2, 18960, Note_on_c, 0, 60, 0
2, 18960, Note_on_c, 0, 62, 115
2, 19200, Note_on_c, 0, 62, 0
2, 19200, Note_on_c, 0, 64, 115
2, 20640, Note_on_c, 0, 64, 0
2, 20640, Note_on_c, 0, 60, 115
2, 20880, Note_on_c, 0, 60, 0
2, 20880, Note_on_c, 0, 62, 115
2, 21120, Note_on_c, 0, 62, 0
2, 21120, Note_on_c, 0, 64, 115
2, 21600, Note_on_c, 0, 64, 0
2, 21600, Note_on_c, 0, 64, 115
2, 22080, Note_on_c, 0, 64, 0
2, 22080, Note_on_c, 0, 65, 115
2, 22560, Note_on_c, 0, 65, 0
2, 22560, Note_on_c, 0, 64, 115
2, 23040, Note_on_c, 0, 64, 0
2, 23040, Note_on_c, 0, 62, 115
2, 24480, Note_on_c, 0, 62, 0
2, 24480, Note_on_c, 0, 59, 115
2, 24720, Note_on_c, 0, 59, 0
2, 24720, Note_on_c, 0, 60, 115
2, 24960, Note_on_c, 0, 60, 0
2, 24960, Note_on_c, 0, 62, 115
2, 25440, Note_on_c, 0, 62, 0
2, 25440, Note_on_c, 0, 62, 115
2, 25920, Note_on_c, 0, 62, 0
2, 25920, Note_on_c, 0, 59, 115
2, 26400, Note_on_c, 0, 59, 0
2, 26400, Note_on_c, 0, 59, 115
2, 26640, Note_on_c, 0, 59, 0
2, 26640, Note_on_c, 0, 60, 115
2, 26880, Note_on_c, 0, 60, 0
2, 26880, Note_on_c, 0, 62, 115
2, 27360, Note_on_c, 0, 62, 0
2, 27360, Note_on_c, 0, 62, 115
2, 27840, Note_on_c, 0, 62, 0
2, 27840, Note_on_c, 0, 59, 115
2, 28320, Note_on_c, 0, 59, 0
2, 28320, Note_on_c, 0, 62, 115
2, 28800, Note_on_c, 0, 62, 0
2, 28800, Note_on_c, 0, 67, 115
2, 29040, Note_on_c, 0, 67, 0
2, 29040, Note_on_c, 0, 67, 115
2, 29280, Note_on_c, 0, 67, 0
2, 29280, Note_on_c, 0, 67, 115
2, 29520, Note_on_c, 0, 67, 0
2, 29520, Note_on_c, 0, 67, 115
2, 29760, Note_on_c, 0, 67, 0
2, 29760, Note_on_c, 0, 65, 115
2, 30240, Note_on_c, 0, 65, 0
2, 30240, Note_on_c, 0, 62, 115
2, 30720, Note_on_c, 0, 62, 0
2, 30720, Note_on_c, 0, 60, 115
2, 32640, Note_on_c, 0, 60, 0
2, 32640, End_track
0, 0, End_of_file
